<svg width="24" height="36" viewBox="0 0 24 36" fill="none" xmlns="http://www.w3.org/2000/svg">
<path d="M21.4055 0.641359H2.15605C1.62736 0.640645 1.11999 0.843755 0.745374 1.20608C0.370756 1.56841 0.159517 2.06033 0.158051 2.5738V33.1086C0.154243 33.4905 0.268868 33.8647 0.487016 34.1825C0.705164 34.5003 1.01674 34.747 1.3812 34.8905C1.74464 35.0396 2.14542 35.081 2.533 35.0092C2.92058 34.9375 3.27761 34.7559 3.55908 34.4873L11.5428 26.8704C11.6064 26.81 11.6918 26.7762 11.7808 26.7762C11.8697 26.7762 11.9552 26.81 12.0188 26.8704L20.0052 34.4846C20.2865 34.7535 20.6435 34.9353 21.0312 35.0071C21.4189 35.0788 21.8197 35.0373 22.1831 34.8878C22.5466 34.7441 22.8573 34.4976 23.0749 34.1804C23.2925 33.8631 23.407 33.4897 23.4035 33.1086V2.5738C23.402 2.06033 23.1908 1.56841 22.8162 1.20608C22.4416 0.843755 21.9342 0.640645 21.4055 0.641359ZM21.7431 33.1086C21.7444 33.172 21.7254 33.2342 21.6887 33.2867C21.652 33.3391 21.5995 33.3793 21.5383 33.4015C21.477 33.4293 21.4083 33.4378 21.3418 33.4258C21.2753 33.4137 21.2143 33.3817 21.1675 33.3343L13.181 25.7201C12.8059 25.3653 12.303 25.1668 11.7794 25.1668C11.2558 25.1668 10.7529 25.3653 10.3777 25.7201L2.39404 33.3343C2.34698 33.3814 2.28605 33.4131 2.21963 33.4252C2.15322 33.4372 2.08459 33.4289 2.02322 33.4015C1.96207 33.3793 1.90952 33.3391 1.87285 33.2867C1.83617 33.2342 1.81716 33.172 1.81844 33.1086V2.5738C1.8199 2.48802 1.8562 2.40627 1.91943 2.34636C1.98267 2.28646 2.06772 2.25325 2.15605 2.25397H21.4055C21.4938 2.25325 21.5789 2.28646 21.6421 2.34636C21.7054 2.40627 21.7417 2.48802 21.7431 2.5738V33.1086Z" fill="white"/>
</svg>
